<?xml version="1.0"?>
<svg xmlns="http://www.w3.org/2000/svg" height="512px" viewBox="0 0 496 496.02659" width="512px"><g><path d="m496.011719 120.027344c0-39.832032-88.925781-57.710938-130.335938-63.878906-4.992187-6.136719-10.320312-12.035157-16.285156-17.386719-32.625-29.214844-74.746094-42.640625-118.65625-37.792969-40.519531 4.480469-76.234375 25.136719-100.707031 55.25-17.023438 2.535156-32.804688 5.617188-47.132813 9.167969-4.394531-5.648438-11.175781-9.359375-18.882812-9.359375-13.015625 0-23.582031 10.429687-23.933594 23.359375-26.480469 11.535156-40.0664062 25.175781-40.0664062 40.640625 0 27.824218 43.5390622 46.75 98.2578122 58.152344 5.800781 33.863281 22.871094 64.75 49.558594 88.167968 23 20.160156 36.183594 48.871094 36.183594 78.765625v6.914063h-16v16h16v24c0 4.414062 3.585937 8 8 8h8v16h-16v16h16v16c0 26.472656 21.53125 48 48 48 26.472656 0 48-21.527344 48-48v-16h16v-16h-16v-16h8c4.417969 0 8-3.585938 8-8v-24h16v-16h-16v-6.914063c0-30.101562 12.96875-58.621093 35.570312-78.238281 26.625-23.105469 43.976563-54.519531 49.953125-88.671875 12.367188-2.585937 23.796875-5.488281 34.15625-8.671875 4.289063 3.992188 10 6.496094 16.320313 6.496094 13.066406 0 23.671875-10.496094 23.953125-23.496094 15.894531-9.664062 24.046875-20.578125 24.046875-32.503906zm-263.519531-103.144532c39.304687-4.34375 77.03125 7.664063 106.21875 33.800782 28.789062 25.789062 45.300781 62.726562 45.300781 101.34375 0 4.246094-.285157 8.464844-.679688 12.65625-21.933593 4.0625-46.367187 7.136718-72.222656 9.039062-4.960937-30.398437-31.328125-53.695312-63.097656-53.695312-31.765625 0-58.132813 23.296875-63.085938 53.6875-27.015625-1.976563-51.222656-5.082032-72.3125-8.984375-.777343-8.511719-.800781-17.191407.03125-25.960938 6.007813-63.613281 56.410157-114.878906 119.847657-121.886719zm15.519531 215.144532c-26.46875 0-48-21.527344-48-48s21.53125-48 48-48c26.472656 0 48 21.527344 48 48s-21.527344 48-48 48zm-184-160c4.410156 0 8 3.589844 8 8 0 4.40625-3.589844 8-8 8-4.40625 0-8-3.59375-8-8 0-4.410156 3.59375-8 8-8zm-48 48c0-8.039063 10.546875-17.144532 29.066406-25.425782 4.390625 5.6875 11.207031 9.425782 18.933594 9.425782 13.035156 0 23.617187-10.449219 23.9375-23.402344 9.160156-2.238281 18.9375-4.285156 29.304687-6.109375-11.136718 18.742187-18.402344 40.03125-20.542968 62.757813-.769532 8.144531-.851563 16.21875-.371094 24.175781-51.382813-11.375-80.328125-27.453125-80.328125-41.421875zm142.363281 134.277344c-22.296875-19.550782-37.097656-44.949219-43.195312-72.894532 22.472656 3.921875 46.175781 6.679688 69.121093 8.351563 2.679688 29.953125 26.066407 53.984375 55.710938 57.703125v104.5625h-40v-6.914063c0-34.503906-15.175781-67.597656-41.636719-90.808593zm121.636719 193.722656c0 17.648437-14.351563 32-32 32-17.644531 0-32-14.351563-32-32v-16h64zm0-32h-64v-16h64zm16-32h-96v-16h96zm41.089843-129.242188c-26.113281 22.65625-41.089843 55.578125-41.089843 90.328125v6.914063h-40v-104.554688c29.664062-3.71875 53.058593-27.78125 55.714843-57.75 24.480469-1.785156 47.808594-4.59375 69.0625-8.3125-6.253906 28.25-21.414062 54.046875-43.6875 73.375zm110.910157-94.757812c-4.40625 0-8-3.59375-8-8 0-4.410156 3.59375-8 8-8 4.410156 0 8 3.589844 8 8 0 4.40625-3.589844 8-8 8zm18.578125-23.007813c-4.410156-5.441406-11.046875-8.992187-18.578125-8.992187-13.230469 0-24 10.765625-24 24 0 1.03125.175781 2.015625.304687 3.007812-7.6875 2.289063-15.976562 4.40625-24.808594 6.367188.195313-3.121094.503907-6.222656.503907-9.375 0-27.542969-7.582031-54.289063-21.390625-77.554688 69.457031 12.1875 101.390625 31.640625 101.390625 45.554688 0 5.269531-4.75 11.175781-13.421875 16.992187zm0 0" data-original="#000000" class="active-path" data-old_color="#000000" fill="#F1F1F1"/><path d="m240.011719 32.027344h16v48h-16zm0 0" data-original="#000000" class="active-path" data-old_color="#000000" fill="#F1F1F1"/><path d="m178.359375 61.6875 11.3125-11.3125 32 32-11.3125 11.3125zm0 0" data-original="#000000" class="active-path" data-old_color="#000000" fill="#F1F1F1"/><path d="m274.355469 82.367188 32-32 11.316406 11.316406-32 32zm0 0" data-original="#000000" class="active-path" data-old_color="#000000" fill="#F1F1F1"/></g> </svg>
